<?xml version="1.0" encoding="UTF-8" standalone="no"?>
<!DOCTYPE svg PUBLIC "-//W3C//DTD SVG 1.1//EN" "http://www.w3.org/Graphics/SVG/1.1/DTD/svg11.dtd">
<svg version="1.1" xmlns="http://www.w3.org/2000/svg" xmlns:xlink="http://www.w3.org/1999/xlink" preserveAspectRatio="xMidYMid meet" viewBox="0 0 640 640" ><defs><path d="M403.66 497.34C395.31 497.34 391.13 493.17 391.13 484.82C391.13 220.77 391.13 74.08 391.13 44.74C391.13 36.39 395.31 32.22 403.66 32.22C537.96 32.22 612.57 32.22 627.5 32.22C635.84 32.22 640.02 36.39 640.02 44.74C640.02 308.79 640.02 455.48 640.02 484.82C640.02 493.17 635.84 497.34 627.5 497.34C493.19 497.34 418.58 497.34 403.66 497.34Z" id="a2ZJKLzxMw"></path><path d="M23.1 431.24C10.34 431.24 0 441.58 0 454.34C0 467.1 10.34 477.45 23.1 477.45C35.86 477.45 46.21 467.1 46.21 454.34C46.21 441.58 35.86 431.24 23.1 431.24Z" id="aoiFPgXuK"></path><path d="M492.57 56.86C490.87 56.86 489.49 58.24 489.49 59.94C489.49 61.64 490.87 63.02 492.57 63.02C494.27 63.02 495.65 61.64 495.65 59.94C495.65 58.24 494.27 56.86 492.57 56.86Z" id="cRwPYMixz"></path><path d="M532.62 56.86C534.67 56.86 535.7 57.89 535.7 59.94C535.7 59.94 535.7 59.94 535.7 59.94C535.7 61.99 534.67 63.02 532.62 63.02C516.91 63.02 508.18 63.02 506.44 63.02C504.38 63.02 503.36 61.99 503.36 59.94C503.36 59.94 503.36 59.94 503.36 59.94C503.36 57.89 504.38 56.86 506.44 56.86C522.15 56.86 530.87 56.86 532.62 56.86Z" id="b1Aq4udzSX"></path><path d="M608.08 75.34C612.19 75.34 614.24 77.4 614.24 81.51C614.24 124.01 614.24 147.63 614.24 152.35C614.24 156.46 612.19 158.51 608.08 158.51C494.42 158.51 431.27 158.51 418.64 158.51C414.54 158.51 412.48 156.46 412.48 152.35C412.48 109.84 412.48 86.23 412.48 81.51C412.48 77.4 414.54 75.34 418.64 75.34C532.31 75.34 595.45 75.34 608.08 75.34Z" id="b4oR6Vf3nt"></path><path d="M582.84 104C585.92 104 587.46 105.54 587.46 108.62C587.46 110.56 587.46 111.64 587.46 111.85C587.46 114.93 585.92 116.47 582.84 116.47C520.92 116.47 486.52 116.47 479.64 116.47C476.56 116.47 475.02 114.93 475.02 111.85C475.02 109.91 475.02 108.83 475.02 108.62C475.02 105.54 476.56 104 479.64 104C541.56 104 575.96 104 582.84 104Z" id="c22i36F6lJ"></path><path d="M497.19 121.09C500.27 121.09 501.81 122.63 501.81 125.71C501.81 127.65 501.81 128.73 501.81 128.94C501.81 132.02 500.27 133.56 497.19 133.56C457.46 133.56 435.38 133.56 430.96 133.56C427.88 133.56 426.34 132.02 426.34 128.94C426.34 127 426.34 125.92 426.34 125.71C426.34 122.63 427.88 121.09 430.96 121.09C470.7 121.09 492.78 121.09 497.19 121.09Z" id="fg2GcPJuG"></path><path d="M103.19 115.5C97.24 115.5 92.41 120.33 92.41 126.28C92.41 132.23 97.24 137.06 103.19 137.06C109.15 137.06 113.97 132.23 113.97 126.28C113.97 120.33 109.15 115.5 103.19 115.5Z" id="bWfkGMyeu"></path><path d="M103.19 121.66C100.64 121.66 98.57 123.73 98.57 126.28C98.57 128.83 100.64 130.9 103.19 130.9C105.74 130.9 107.81 128.83 107.81 126.28C107.81 123.73 105.74 121.66 103.19 121.66Z" id="b46V4saHe"></path><path d="M608.08 170.84C612.19 170.84 614.24 172.89 614.24 177C614.24 208.42 614.24 225.87 614.24 229.36C614.24 233.47 612.19 235.52 608.08 235.52C494.42 235.52 431.27 235.52 418.64 235.52C414.54 235.52 412.48 233.47 412.48 229.36C412.48 197.94 412.48 180.49 412.48 177C412.48 172.89 414.54 170.84 418.64 170.84C532.31 170.84 595.45 170.84 608.08 170.84Z" id="gXJWWZXIC"></path><path d="M548.6 188.86C551.68 188.86 553.22 190.4 553.22 193.48C553.22 193.76 553.22 193.91 553.22 193.94C553.22 197.02 551.68 198.56 548.6 198.56C486.69 198.56 452.29 198.56 445.41 198.56C442.33 198.56 440.79 197.02 440.79 193.94C440.79 193.67 440.79 193.51 440.79 193.48C440.79 190.4 442.33 188.86 445.41 188.86C507.33 188.86 541.72 188.86 548.6 188.86Z" id="bkNIVYprm"></path><path d="M548.92 205.72C552 205.72 553.54 207.26 553.54 210.34C553.54 210.62 553.54 210.78 553.54 210.81C553.54 213.89 552 215.43 548.92 215.43C509.18 215.43 487.11 215.43 482.69 215.43C479.61 215.43 478.07 213.89 478.07 210.81C478.07 210.53 478.07 210.37 478.07 210.34C478.07 207.26 479.61 205.72 482.69 205.72C522.43 205.72 544.51 205.72 548.92 205.72Z" id="fv5RfpYSa"></path><path d="M579.41 183.32C569.2 183.32 560.93 191.59 560.93 201.8C560.93 212.01 569.2 220.28 579.41 220.28C589.62 220.28 597.89 212.01 597.89 201.8C597.89 191.59 589.62 183.32 579.41 183.32Z" id="c114re51YA"></path><path d="M608.08 247.84C612.19 247.84 614.24 249.9 614.24 254C614.24 285.42 614.24 302.88 614.24 306.37C614.24 310.48 612.19 312.53 608.08 312.53C494.42 312.53 431.27 312.53 418.64 312.53C414.54 312.53 412.48 310.48 412.48 306.37C412.48 274.95 412.48 257.5 412.48 254C412.48 249.9 414.54 247.84 418.64 247.84C532.31 247.84 595.45 247.84 608.08 247.84Z" id="a6zAsZqR5"></path><path d="M589.23 267.25C593.88 267.25 596.21 267.25 596.21 267.25C596.21 273.07 596.21 276.31 596.21 276.95C596.21 276.95 593.88 276.95 589.23 276.95C495.69 276.95 443.72 276.95 433.32 276.95C428.67 276.95 426.34 276.95 426.34 276.95C426.34 271.13 426.34 267.9 426.34 267.25C426.34 267.25 428.67 267.25 433.32 267.25C526.87 267.25 578.83 267.25 589.23 267.25Z" id="a37KdaTwys"></path><path d="M497.19 283.42C500.27 283.42 501.81 284.96 501.81 288.04C501.81 288.32 501.81 288.47 501.81 288.5C501.81 291.59 500.27 293.13 497.19 293.13C457.46 293.13 435.38 293.13 430.96 293.13C427.88 293.13 426.34 291.59 426.34 288.5C426.34 288.23 426.34 288.07 426.34 288.04C426.34 284.96 427.88 283.42 430.96 283.42C470.7 283.42 492.78 283.42 497.19 283.42Z" id="c371XrxlNA"></path><path d="M103.19 278.76C97.24 278.76 92.41 283.58 92.41 289.54C92.41 295.49 97.24 300.32 103.19 300.32C109.15 300.32 113.97 295.49 113.97 289.54C113.97 283.58 109.15 278.76 103.19 278.76Z" id="b5XJAjFvWp"></path><path d="M103.19 284.92C100.64 284.92 98.57 286.99 98.57 289.54C98.57 292.09 100.64 294.16 103.19 294.16C105.74 294.16 107.81 292.09 107.81 289.54C107.81 286.99 105.74 284.92 103.19 284.92Z" id="c1xEbrvYYW"></path><path d="M608.08 324.85C612.19 324.85 614.24 326.91 614.24 331.01C614.24 362.43 614.24 379.89 614.24 383.38C614.24 387.49 612.19 389.54 608.08 389.54C494.42 389.54 431.27 389.54 418.64 389.54C414.54 389.54 412.48 387.49 412.48 383.38C412.48 351.96 412.48 334.5 412.48 331.01C412.48 326.91 414.54 324.85 418.64 324.85C532.31 324.85 595.45 324.85 608.08 324.85Z" id="aycUyvHf2"></path><path d="M450.4 337.32C440.19 337.32 431.92 345.59 431.92 355.8C431.92 366.01 440.19 374.28 450.4 374.28C460.61 374.28 468.88 366.01 468.88 355.8C468.88 345.59 460.61 337.32 450.4 337.32Z" id="ctQzxB7dD"></path><path d="M507.02 74.89C515.24 74.89 519.35 78.99 519.35 87.21C519.35 392.16 519.35 561.57 519.35 595.46C519.35 603.67 515.24 607.78 507.02 607.78C212.23 607.78 48.46 607.78 15.7 607.78C7.49 607.78 3.38 603.67 3.38 595.46C3.38 290.51 3.38 121.09 3.38 87.21C3.38 78.99 7.49 74.89 15.7 74.89C310.5 74.89 474.27 74.89 507.02 74.89Z" id="aD3PmohPx"></path><path d="M482.37 141.11C490.59 141.11 494.7 145.22 494.7 153.44C494.7 213.5 494.7 246.87 494.7 253.55C494.7 261.76 490.59 265.87 482.37 265.87C432.47 265.87 404.75 265.87 399.2 265.87C390.99 265.87 386.88 261.76 386.88 253.55C386.88 193.48 386.88 160.11 386.88 153.44C386.88 145.22 390.99 141.11 399.2 141.11C449.11 141.11 476.83 141.11 482.37 141.11Z" id="f24fzlZJR4"></path><path d="M440.79 164.22C427.18 164.22 416.15 175.25 416.15 188.86C416.15 202.47 427.18 213.5 440.79 213.5C454.4 213.5 465.43 202.47 465.43 188.86C465.43 175.25 454.4 164.22 440.79 164.22Z" id="e3230ijcuF"></path><path d="M474.68 219.66C477.76 219.66 479.3 221.2 479.3 224.28C479.3 224.28 479.3 224.28 479.3 224.28C479.3 227.36 477.76 228.9 474.68 228.9C434.02 228.9 411.43 228.9 406.91 228.9C403.83 228.9 402.29 227.36 402.29 224.28C402.29 224.28 402.29 224.28 402.29 224.28C402.29 221.2 403.83 219.66 406.91 219.66C447.57 219.66 470.16 219.66 474.68 219.66Z" id="f2nuf0OCX1"></path><path d="M462.36 235.07C465.44 235.07 466.98 236.61 466.98 239.69C466.98 239.69 466.98 239.69 466.98 239.69C466.98 242.77 465.44 244.31 462.36 244.31C436.48 244.31 422.11 244.31 419.23 244.31C416.15 244.31 414.61 242.77 414.61 239.69C414.61 239.69 414.61 239.69 414.61 239.69C414.61 236.61 416.15 235.07 419.23 235.07C445.11 235.07 459.48 235.07 462.36 235.07Z" id="c3A4btbYAa"></path><path d="M507.02 74.89C513.82 74.89 519.34 80.4 519.34 87.21C519.34 89.16 519.34 98.91 519.34 116.47L3.37 116.47C3.37 98.91 3.37 89.16 3.37 87.21C3.37 80.4 8.89 74.89 15.7 74.89C15.7 74.89 457.89 74.89 507.02 74.89Z" id="cD4EnsoAI"></path><path d="M23.4 90.29C20 90.29 17.24 93.05 17.24 96.45C17.24 99.85 20 102.61 23.4 102.61C26.81 102.61 29.56 99.85 29.56 96.45C29.56 93.05 26.81 90.29 23.4 90.29Z" id="ejpmoQ8BK"></path><path d="M41.88 90.29C38.48 90.29 35.72 93.05 35.72 96.45C35.72 99.85 38.48 102.61 41.88 102.61C45.29 102.61 48.04 99.85 48.04 96.45C48.04 93.05 45.29 90.29 41.88 90.29Z" id="arUB7ubP9"></path><path d="M60.37 90.29C56.97 90.29 54.21 93.05 54.21 96.45C54.21 99.85 56.97 102.61 60.37 102.61C63.77 102.61 66.53 99.85 66.53 96.45C66.53 93.05 63.77 90.29 60.37 90.29Z" id="diuTzJCBL"></path><path d="M482.37 278.19C490.59 278.19 494.7 282.3 494.7 290.51C494.7 455 494.7 546.39 494.7 564.67C494.7 572.88 490.59 576.99 482.37 576.99C432.47 576.99 404.75 576.99 399.2 576.99C390.99 576.99 386.88 572.88 386.88 564.67C386.88 400.17 386.88 308.79 386.88 290.51C386.88 282.3 390.99 278.19 399.2 278.19C449.11 278.19 476.83 278.19 482.37 278.19Z" id="b84LBw6MX"></path><path d="M460.81 305.91C464.92 305.91 466.97 307.97 466.97 312.07C466.97 328.71 466.97 337.95 466.97 339.8C466.97 343.9 464.92 345.96 460.81 345.96C436.78 345.96 423.44 345.96 420.77 345.96C416.66 345.96 414.61 343.9 414.61 339.8C414.61 323.16 414.61 313.92 414.61 312.07C414.61 307.97 416.66 305.91 420.77 305.91C444.79 305.91 458.14 305.91 460.81 305.91Z" id="a2Kpijz66V"></path><path d="M460.81 358.28C464.92 358.28 466.97 360.33 466.97 364.44C466.97 380.15 466.97 388.88 466.97 390.62C466.97 394.73 464.92 396.78 460.81 396.78C436.78 396.78 423.44 396.78 420.77 396.78C416.66 396.78 414.61 394.73 414.61 390.62C414.61 374.91 414.61 366.19 414.61 364.44C414.61 360.33 416.66 358.28 420.77 358.28C444.79 358.28 458.14 358.28 460.81 358.28Z" id="e1CUaolujS"></path><path d="M460.81 409.1C464.92 409.1 466.97 411.16 466.97 415.27C466.97 430.97 466.97 439.7 466.97 441.45C466.97 445.56 464.92 447.61 460.81 447.61C436.78 447.61 423.44 447.61 420.77 447.61C416.66 447.61 414.61 445.56 414.61 441.45C414.61 425.74 414.61 417.01 414.61 415.27C414.61 411.16 416.66 409.1 420.77 409.1C444.79 409.1 458.14 409.1 460.81 409.1Z" id="f16bYCySz4"></path><path d="M460.81 510.76C464.92 510.76 466.97 512.81 466.97 516.92C466.97 532.63 466.97 541.36 466.97 543.1C466.97 547.21 464.92 549.26 460.81 549.26C436.78 549.26 423.44 549.26 420.77 549.26C416.66 549.26 414.61 547.21 414.61 543.1C414.61 527.39 414.61 518.66 414.61 516.92C414.61 512.81 416.66 510.76 420.77 510.76C444.79 510.76 458.14 510.76 460.81 510.76Z" id="aqtjPdizS"></path><path d="M460.81 459.93C464.92 459.93 466.97 461.98 466.97 466.09C466.97 481.8 466.97 490.53 466.97 492.27C466.97 496.38 464.92 498.44 460.81 498.44C436.78 498.44 423.44 498.44 420.77 498.44C416.66 498.44 414.61 496.38 414.61 492.27C414.61 476.56 414.61 467.84 414.61 466.09C414.61 461.98 416.66 459.93 420.77 459.93C444.79 459.93 458.14 459.93 460.81 459.93Z" id="c1r8ZquXAm"></path><path d="M368.39 142.66C372.5 142.66 374.55 144.71 374.55 148.82C374.55 184.86 374.55 204.88 374.55 208.88C374.55 212.99 372.5 215.04 368.39 215.04C167.87 215.04 56.46 215.04 34.18 215.04C30.08 215.04 28.02 212.99 28.02 208.88C28.02 172.84 28.02 152.82 28.02 148.82C28.02 144.71 30.08 142.66 34.18 142.66C234.71 142.66 346.11 142.66 368.39 142.66Z" id="c1xRvzoUf3"></path><path d="M294.46 164.37C297.55 164.37 299.09 165.91 299.09 168.99C299.09 169.96 299.09 170.5 299.09 170.61C299.09 173.69 297.55 175.23 294.46 175.23C145.69 175.23 63.03 175.23 46.5 175.23C43.42 175.23 41.88 173.69 41.88 170.61C41.88 169.64 41.88 169.1 41.88 168.99C41.88 165.91 43.42 164.37 46.5 164.37C195.28 164.37 277.93 164.37 294.46 164.37Z" id="gY80uPDkZ"></path><path d="M209.91 182.47C212.99 182.47 214.53 184.01 214.53 187.09C214.53 188.06 214.53 188.6 214.53 188.71C214.53 191.79 212.99 193.33 209.91 193.33C111.87 193.33 57.4 193.33 46.5 193.33C43.42 193.33 41.88 191.79 41.88 188.71C41.88 187.74 41.88 187.2 41.88 187.09C41.88 184.01 43.42 182.47 46.5 182.47C144.55 182.47 199.02 182.47 209.91 182.47Z" id="c8M38XxCB"></path><path d="M337.53 168.07C331.58 168.07 326.75 172.89 326.75 178.85C326.75 184.8 331.58 189.63 337.53 189.63C343.49 189.63 348.31 184.8 348.31 178.85C348.31 172.89 343.49 168.07 337.53 168.07Z" id="adYObu4K4"></path><path d="M337.53 174.23C334.98 174.23 332.91 176.3 332.91 178.85C332.91 181.4 334.98 183.47 337.53 183.47C340.08 183.47 342.15 181.4 342.15 178.85C342.15 176.3 340.08 174.23 337.53 174.23Z" id="aOiVYOGZS"></path><path d="M368.39 227.36C372.5 227.36 374.55 229.42 374.55 233.53C374.55 262.17 374.55 278.09 374.55 281.27C374.55 285.38 372.5 287.43 368.39 287.43C167.87 287.43 56.46 287.43 34.18 287.43C30.08 287.43 28.02 285.38 28.02 281.27C28.02 252.62 28.02 236.71 28.02 233.53C28.02 229.42 30.08 227.36 34.18 227.36C234.71 227.36 346.11 227.36 368.39 227.36Z" id="b6A48oEvu"></path><path d="M294.58 245.38C297.58 245.38 299.09 246.89 299.09 249.89C299.09 249.89 299.09 249.89 299.09 249.89C299.09 252.89 297.58 254.39 294.58 254.39C145.67 254.39 62.93 254.39 46.39 254.39C43.39 254.39 41.88 252.89 41.88 249.89C41.88 249.89 41.88 249.89 41.88 249.89C41.88 246.89 43.39 245.38 46.39 245.38C195.3 245.38 278.03 245.38 294.58 245.38Z" id="a4fwgvs1h"></path><path d="M210.03 260.4C213.03 260.4 214.53 261.9 214.53 264.91C214.53 264.91 214.53 264.91 214.53 264.91C214.53 267.91 213.03 269.41 210.03 269.41C111.84 269.41 57.3 269.41 46.39 269.41C43.39 269.41 41.88 267.91 41.88 264.91C41.88 264.91 41.88 264.91 41.88 264.91C41.88 261.9 43.39 260.4 46.39 260.4C144.57 260.4 199.12 260.4 210.03 260.4Z" id="aeHjBz35d"></path><path d="M337.53 246.62C331.58 246.62 326.75 251.44 326.75 257.4C326.75 263.35 331.58 268.18 337.53 268.18C343.49 268.18 348.31 263.35 348.31 257.4C348.31 251.44 343.49 246.62 337.53 246.62Z" id="a1ANIgaxN"></path><path d="M337.53 252.78C334.98 252.78 332.91 254.85 332.91 257.4C332.91 259.95 334.98 262.02 337.53 262.02C340.08 262.02 342.15 259.95 342.15 257.4C342.15 254.85 340.08 252.78 337.53 252.78Z" id="b4hZYfTK1B"></path><path d="M368.39 299.76C372.5 299.76 374.55 301.81 374.55 305.92C374.55 334.57 374.55 350.48 374.55 353.67C374.55 357.77 372.5 359.83 368.39 359.83C167.87 359.83 56.46 359.83 34.18 359.83C30.08 359.83 28.02 357.77 28.02 353.67C28.02 325.02 28.02 309.1 28.02 305.92C28.02 301.81 30.08 299.76 34.18 299.76C234.71 299.76 346.11 299.76 368.39 299.76Z" id="c2usH8fs3f"></path><path d="M294.58 317.78C297.58 317.78 299.09 319.28 299.09 322.29C299.09 322.29 299.09 322.29 299.09 322.29C299.09 325.29 297.58 326.79 294.58 326.79C145.67 326.79 62.93 326.79 46.39 326.79C43.39 326.79 41.88 325.29 41.88 322.29C41.88 322.29 41.88 322.29 41.88 322.29C41.88 319.28 43.39 317.78 46.39 317.78C195.3 317.78 278.03 317.78 294.58 317.78Z" id="cS1SNdn1E"></path><path d="M210.03 332.8C213.03 332.8 214.53 334.3 214.53 337.3C214.53 337.3 214.53 337.3 214.53 337.3C214.53 340.31 213.03 341.81 210.03 341.81C111.84 341.81 57.3 341.81 46.39 341.81C43.39 341.81 41.88 340.31 41.88 337.3C41.88 337.3 41.88 337.3 41.88 337.3C41.88 334.3 43.39 332.8 46.39 332.8C144.57 332.8 199.12 332.8 210.03 332.8Z" id="a4J2mcsqu"></path><path d="M337.53 319.01C331.58 319.01 326.75 323.84 326.75 329.79C326.75 335.75 331.58 340.57 337.53 340.57C343.49 340.57 348.31 335.75 348.31 329.79C348.31 323.84 343.49 319.01 337.53 319.01Z" id="a1J4OyBqyt"></path><path d="M337.53 325.17C334.98 325.17 332.91 327.24 332.91 329.79C332.91 332.35 334.98 334.41 337.53 334.41C340.08 334.41 342.15 332.35 342.15 329.79C342.15 327.24 340.08 325.17 337.53 325.17Z" id="e2pJfpPuF9"></path><path d="M368.39 372.14C372.5 372.14 374.55 374.2 374.55 378.3C374.55 406.95 374.55 422.87 374.55 426.05C374.55 430.16 372.5 432.21 368.39 432.21C167.87 432.21 56.46 432.21 34.18 432.21C30.08 432.21 28.02 430.16 28.02 426.05C28.02 397.4 28.02 381.49 28.02 378.3C28.02 374.2 30.08 372.14 34.18 372.14C234.71 372.14 346.11 372.14 368.39 372.14Z" id="a1PytezN3J"></path><path d="M294.58 390.16C297.58 390.16 299.09 391.66 299.09 394.67C299.09 394.67 299.09 394.67 299.09 394.67C299.09 397.67 297.58 399.17 294.58 399.17C145.67 399.17 62.93 399.17 46.39 399.17C43.39 399.17 41.88 397.67 41.88 394.67C41.88 394.67 41.88 394.67 41.88 394.67C41.88 391.66 43.39 390.16 46.39 390.16C195.3 390.16 278.03 390.16 294.58 390.16Z" id="eX2lBby3T"></path><path d="M210.03 405.18C213.03 405.18 214.53 406.68 214.53 409.68C214.53 409.68 214.53 409.68 214.53 409.68C214.53 412.69 213.03 414.19 210.03 414.19C111.84 414.19 57.3 414.19 46.39 414.19C43.39 414.19 41.88 412.69 41.88 409.68C41.88 409.68 41.88 409.68 41.88 409.68C41.88 406.68 43.39 405.18 46.39 405.18C144.57 405.18 199.12 405.18 210.03 405.18Z" id="a184HnBB9N"></path><path d="M337.53 391.39C331.58 391.39 326.75 396.22 326.75 402.18C326.75 408.13 331.58 412.96 337.53 412.96C343.49 412.96 348.31 408.13 348.31 402.18C348.31 396.22 343.49 391.39 337.53 391.39Z" id="c4vDJkJTm"></path><path d="M337.53 397.56C334.98 397.56 332.91 399.62 332.91 402.18C332.91 404.73 334.98 406.8 337.53 406.8C340.08 406.8 342.15 404.73 342.15 402.18C342.15 399.62 340.08 397.56 337.53 397.56Z" id="aM5OFdVQ"></path><path d="M368.39 444.53C372.5 444.53 374.55 446.58 374.55 450.69C374.55 479.33 374.55 495.25 374.55 498.43C374.55 502.54 372.5 504.59 368.39 504.59C167.87 504.59 56.46 504.59 34.18 504.59C30.08 504.59 28.02 502.54 28.02 498.43C28.02 469.78 28.02 453.87 28.02 450.69C28.02 446.58 30.08 444.53 34.18 444.53C234.71 444.53 346.11 444.53 368.39 444.53Z" id="akoAPWLfI"></path><path d="M294.58 462.55C297.58 462.55 299.09 464.05 299.09 467.05C299.09 467.05 299.09 467.05 299.09 467.05C299.09 470.05 297.58 471.56 294.58 471.56C145.67 471.56 62.93 471.56 46.39 471.56C43.39 471.56 41.88 470.05 41.88 467.05C41.88 467.05 41.88 467.05 41.88 467.05C41.88 464.05 43.39 462.55 46.39 462.55C195.3 462.55 278.03 462.55 294.58 462.55Z" id="h31oQhZyC"></path><path d="M210.03 477.56C213.03 477.56 214.53 479.06 214.53 482.07C214.53 482.07 214.53 482.07 214.53 482.07C214.53 485.07 213.03 486.57 210.03 486.57C111.84 486.57 57.3 486.57 46.39 486.57C43.39 486.57 41.88 485.07 41.88 482.07C41.88 482.07 41.88 482.07 41.88 482.07C41.88 479.06 43.39 477.56 46.39 477.56C144.57 477.56 199.12 477.56 210.03 477.56Z" id="bnmTLpRFc"></path><path d="M337.53 463.78C331.58 463.78 326.75 468.6 326.75 474.56C326.75 480.51 331.58 485.34 337.53 485.34C343.49 485.34 348.31 480.51 348.31 474.56C348.31 468.6 343.49 463.78 337.53 463.78Z" id="g2qeBnJiLS"></path><path d="M337.53 469.94C334.98 469.94 332.91 472.01 332.91 474.56C332.91 477.11 334.98 479.18 337.53 479.18C340.08 479.18 342.15 477.11 342.15 474.56C342.15 472.01 340.08 469.94 337.53 469.94Z" id="b65c5eQ1z"></path><path d="M368.39 516.91C372.5 516.91 374.55 518.96 374.55 523.07C374.55 551.72 374.55 567.63 374.55 570.81C374.55 574.92 372.5 576.98 368.39 576.98C167.87 576.98 56.46 576.98 34.18 576.98C30.08 576.98 28.02 574.92 28.02 570.81C28.02 542.17 28.02 526.25 28.02 523.07C28.02 518.96 30.08 516.91 34.18 516.91C234.71 516.91 346.11 516.91 368.39 516.91Z" id="b1yDSWYOmf"></path><path d="M294.58 534.93C297.58 534.93 299.09 536.43 299.09 539.43C299.09 539.43 299.09 539.43 299.09 539.43C299.09 542.44 297.58 543.94 294.58 543.94C145.67 543.94 62.93 543.94 46.39 543.94C43.39 543.94 41.88 542.44 41.88 539.43C41.88 539.43 41.88 539.43 41.88 539.43C41.88 536.43 43.39 534.93 46.39 534.93C195.3 534.93 278.03 534.93 294.58 534.93Z" id="am0SFvG52"></path><path d="M210.03 549.94C213.03 549.94 214.53 551.45 214.53 554.45C214.53 554.45 214.53 554.45 214.53 554.45C214.53 557.45 213.03 558.95 210.03 558.95C111.84 558.95 57.3 558.95 46.39 558.95C43.39 558.95 41.88 557.45 41.88 554.45C41.88 554.45 41.88 554.45 41.88 554.45C41.88 551.45 43.39 549.94 46.39 549.94C144.57 549.94 199.12 549.94 210.03 549.94Z" id="a1g8ybMSfj"></path><path d="M337.53 536.16C331.58 536.16 326.75 540.99 326.75 546.94C326.75 552.9 331.58 557.72 337.53 557.72C343.49 557.72 348.31 552.9 348.31 546.94C348.31 540.99 343.49 536.16 337.53 536.16Z" id="a32HyCjgp"></path><path d="M337.53 542.32C334.98 542.32 332.91 544.39 332.91 546.94C332.91 549.49 334.98 551.56 337.53 551.56C340.08 551.56 342.15 549.49 342.15 546.94C342.15 544.39 340.08 542.32 337.53 542.32Z" id="a3wLgTwRl"></path><path d="M582.74 128.64C585.65 128.64 587.1 130.09 587.1 133C587.1 135.25 587.1 136.5 587.1 136.75C587.1 139.66 585.65 141.12 582.74 141.12C547.33 141.12 527.65 141.12 523.72 141.12C520.81 141.12 519.35 139.66 519.35 136.75C519.35 134.5 519.35 133.25 519.35 133C519.35 130.09 520.81 128.64 523.72 128.64C559.13 128.64 578.8 128.64 582.74 128.64Z" id="b12qrulV7X"></path><path d="M581.83 338.46C571.63 338.46 563.35 346.73 563.35 356.94C563.35 367.15 571.63 375.42 581.83 375.42C592.04 375.42 600.32 367.15 600.32 356.94C600.32 346.73 592.04 338.46 581.83 338.46Z" id="a1qYMptE5"></path><path d="M538.19 338.08C527.99 338.08 519.71 346.36 519.71 356.57C519.71 366.77 527.99 375.05 538.19 375.05C548.4 375.05 556.68 366.77 556.68 356.57C556.68 346.36 548.4 338.08 538.19 338.08Z" id="a5V0x4T9m"></path><path d="M593.06 283.41C595.16 283.41 596.21 283.41 596.21 283.41C596.21 289.23 596.21 292.47 596.21 293.12C596.21 293.12 595.16 293.12 593.06 293.12C550.73 293.12 527.22 293.12 522.51 293.12C520.41 293.12 519.35 293.12 519.35 293.12C519.35 287.29 519.35 284.06 519.35 283.41C519.35 283.41 520.41 283.41 522.51 283.41C564.84 283.41 588.35 283.41 593.06 283.41Z" id="b1MNSlD6MR"></path></defs><g><g><g><use xlink:href="#a2ZJKLzxMw" opacity="1" fill="#1f2833" fill-opacity="1"></use><g><use xlink:href="#a2ZJKLzxMw" opacity="1" fill-opacity="0" stroke="#000000" stroke-width="1.01" stroke-opacity="0"></use></g></g><g><use xlink:href="#aoiFPgXuK" opacity="1" fill="#ffffff" fill-opacity="1"></use><g><use xlink:href="#aoiFPgXuK" opacity="1" fill-opacity="0" stroke="#000000" stroke-width="1" stroke-opacity="0"></use></g></g><g><use xlink:href="#cRwPYMixz" opacity="1" fill="#ffffff" fill-opacity="1"></use><g><use xlink:href="#cRwPYMixz" opacity="1" fill-opacity="0" stroke="#000000" stroke-width="1" stroke-opacity="0"></use></g></g><g><use xlink:href="#b1Aq4udzSX" opacity="1" fill="#ffffff" fill-opacity="1"></use><g><use xlink:href="#b1Aq4udzSX" opacity="1" fill-opacity="0" stroke="#000000" stroke-width="1" stroke-opacity="0"></use></g></g><g><use xlink:href="#b4oR6Vf3nt" opacity="1" fill="#ffffff" fill-opacity="1"></use><g><use xlink:href="#b4oR6Vf3nt" opacity="1" fill-opacity="0" stroke="#000000" stroke-width="1" stroke-opacity="0"></use></g></g><g><use xlink:href="#c22i36F6lJ" opacity="1" fill="#e1e8ee" fill-opacity="0.97"></use><g><use xlink:href="#c22i36F6lJ" opacity="1" fill-opacity="0" stroke="#000000" stroke-width="1" stroke-opacity="0"></use></g></g><g><use xlink:href="#fg2GcPJuG" opacity="1" fill="#dde3e9" fill-opacity="1"></use><g><use xlink:href="#fg2GcPJuG" opacity="1" fill-opacity="0" stroke="#000000" stroke-width="1" stroke-opacity="0"></use></g></g><g><use xlink:href="#bWfkGMyeu" opacity="1" fill="#dde3e9" fill-opacity="1"></use><g><use xlink:href="#bWfkGMyeu" opacity="1" fill-opacity="0" stroke="#000000" stroke-width="1" stroke-opacity="0"></use></g></g><g><use xlink:href="#b46V4saHe" opacity="1" fill="#f2f2f2" fill-opacity="1"></use><g><use xlink:href="#b46V4saHe" opacity="1" fill-opacity="0" stroke="#000000" stroke-width="1" stroke-opacity="0"></use></g></g><g><use xlink:href="#gXJWWZXIC" opacity="1" fill="#ffffff" fill-opacity="1"></use><g><use xlink:href="#gXJWWZXIC" opacity="1" fill-opacity="0" stroke="#000000" stroke-width="1" stroke-opacity="0"></use></g></g><g><use xlink:href="#bkNIVYprm" opacity="1" fill="#dde3e9" fill-opacity="1"></use><g><use xlink:href="#bkNIVYprm" opacity="1" fill-opacity="0" stroke="#000000" stroke-width="1" stroke-opacity="0"></use></g></g><g><use xlink:href="#fv5RfpYSa" opacity="1" fill="#dde3e9" fill-opacity="1"></use><g><use xlink:href="#fv5RfpYSa" opacity="1" fill-opacity="0" stroke="#000000" stroke-width="1" stroke-opacity="0"></use></g></g><g><use xlink:href="#c114re51YA" opacity="1" fill="#c5cfd6" fill-opacity="1"></use><g><use xlink:href="#c114re51YA" opacity="1" fill-opacity="0" stroke="#000000" stroke-width="1" stroke-opacity="0"></use></g></g><g><use xlink:href="#a6zAsZqR5" opacity="1" fill="#ffffff" fill-opacity="1"></use><g><use xlink:href="#a6zAsZqR5" opacity="1" fill-opacity="0" stroke="#000000" stroke-width="1" stroke-opacity="0"></use></g></g><g><use xlink:href="#a37KdaTwys" opacity="1" fill="#dde3e9" fill-opacity="1"></use><g><use xlink:href="#a37KdaTwys" opacity="1" fill-opacity="0" stroke="#000000" stroke-width="1.23" stroke-opacity="0"></use></g></g><g><use xlink:href="#c371XrxlNA" opacity="1" fill="#afb9c5" fill-opacity="1"></use><g><use xlink:href="#c371XrxlNA" opacity="1" fill-opacity="0" stroke="#000000" stroke-width="1" stroke-opacity="0"></use></g></g><g><use xlink:href="#b5XJAjFvWp" opacity="1" fill="#dde3e9" fill-opacity="1"></use><g><use xlink:href="#b5XJAjFvWp" opacity="1" fill-opacity="0" stroke="#000000" stroke-width="1" stroke-opacity="0"></use></g></g><g><use xlink:href="#c1xEbrvYYW" opacity="1" fill="#f2f2f2" fill-opacity="1"></use><g><use xlink:href="#c1xEbrvYYW" opacity="1" fill-opacity="0" stroke="#000000" stroke-width="1" stroke-opacity="0"></use></g></g><g><use xlink:href="#aycUyvHf2" opacity="1" fill="#ffffff" fill-opacity="1"></use><g><use xlink:href="#aycUyvHf2" opacity="1" fill-opacity="0" stroke="#000000" stroke-width="1" stroke-opacity="0"></use></g></g><g><use xlink:href="#ctQzxB7dD" opacity="1" fill="#c5cfd6" fill-opacity="1"></use><g><use xlink:href="#ctQzxB7dD" opacity="1" fill-opacity="0" stroke="#000000" stroke-width="1" stroke-opacity="0"></use></g></g><g><use xlink:href="#aD3PmohPx" opacity="1" fill="#1f2833" fill-opacity="1"></use><g><use xlink:href="#aD3PmohPx" opacity="1" fill-opacity="0" stroke="#000000" stroke-width="1" stroke-opacity="0"></use></g></g><g><use xlink:href="#f24fzlZJR4" opacity="1" fill="#ffffff" fill-opacity="1"></use><g><use xlink:href="#f24fzlZJR4" opacity="1" fill-opacity="0" stroke="#000000" stroke-width="1" stroke-opacity="0"></use></g></g><g><use xlink:href="#e3230ijcuF" opacity="1" fill="#dde3e9" fill-opacity="1"></use><g><use xlink:href="#e3230ijcuF" opacity="1" fill-opacity="0" stroke="#000000" stroke-width="1" stroke-opacity="0"></use></g></g><g><use xlink:href="#f2nuf0OCX1" opacity="1" fill="#dde3e9" fill-opacity="1"></use><g><use xlink:href="#f2nuf0OCX1" opacity="1" fill-opacity="0" stroke="#000000" stroke-width="1" stroke-opacity="0"></use></g></g><g><use xlink:href="#c3A4btbYAa" opacity="1" fill="#dde3e9" fill-opacity="1"></use><g><use xlink:href="#c3A4btbYAa" opacity="1" fill-opacity="0" stroke="#000000" stroke-width="1" stroke-opacity="0"></use></g></g><g><use xlink:href="#cD4EnsoAI" opacity="1" fill="#57cac5" fill-opacity="1"></use><g><use xlink:href="#cD4EnsoAI" opacity="1" fill-opacity="0" stroke="#000000" stroke-width="1" stroke-opacity="0"></use></g></g><g><use xlink:href="#ejpmoQ8BK" opacity="1" fill="#f2f2f2" fill-opacity="1"></use><g><use xlink:href="#ejpmoQ8BK" opacity="1" fill-opacity="0" stroke="#000000" stroke-width="1" stroke-opacity="0"></use></g></g><g><use xlink:href="#arUB7ubP9" opacity="1" fill="#f2f2f2" fill-opacity="1"></use><g><use xlink:href="#arUB7ubP9" opacity="1" fill-opacity="0" stroke="#000000" stroke-width="1" stroke-opacity="0"></use></g></g><g><use xlink:href="#diuTzJCBL" opacity="1" fill="#f2f2f2" fill-opacity="1"></use><g><use xlink:href="#diuTzJCBL" opacity="1" fill-opacity="0" stroke="#000000" stroke-width="1" stroke-opacity="0"></use></g></g><g><use xlink:href="#b84LBw6MX" opacity="1" fill="#ffffff" fill-opacity="1"></use><g><use xlink:href="#b84LBw6MX" opacity="1" fill-opacity="0" stroke="#000000" stroke-width="1" stroke-opacity="0"></use></g></g><g><use xlink:href="#a2Kpijz66V" opacity="1" fill="#dde3e9" fill-opacity="1"></use><g><use xlink:href="#a2Kpijz66V" opacity="1" fill-opacity="0" stroke="#000000" stroke-width="1" stroke-opacity="0"></use></g></g><g><use xlink:href="#e1CUaolujS" opacity="1" fill="#afb9c5" fill-opacity="1"></use><g><use xlink:href="#e1CUaolujS" opacity="1" fill-opacity="0" stroke="#000000" stroke-width="1" stroke-opacity="0"></use></g></g><g><use xlink:href="#f16bYCySz4" opacity="1" fill="#dde3e9" fill-opacity="1"></use><g><use xlink:href="#f16bYCySz4" opacity="1" fill-opacity="0" stroke="#000000" stroke-width="1" stroke-opacity="0"></use></g></g><g><use xlink:href="#aqtjPdizS" opacity="1" fill="#dde3e9" fill-opacity="1"></use><g><use xlink:href="#aqtjPdizS" opacity="1" fill-opacity="0" stroke="#000000" stroke-width="1" stroke-opacity="0"></use></g></g><g><use xlink:href="#c1r8ZquXAm" opacity="1" fill="#c5cfd6" fill-opacity="1"></use><g><use xlink:href="#c1r8ZquXAm" opacity="1" fill-opacity="0" stroke="#000000" stroke-width="1" stroke-opacity="0"></use></g></g><g><use xlink:href="#c1xRvzoUf3" opacity="1" fill="#ffffff" fill-opacity="1"></use><g><use xlink:href="#c1xRvzoUf3" opacity="1" fill-opacity="0" stroke="#000000" stroke-width="1" stroke-opacity="0"></use></g></g><g><use xlink:href="#gY80uPDkZ" opacity="1" fill="#dde3e9" fill-opacity="1"></use><g><use xlink:href="#gY80uPDkZ" opacity="1" fill-opacity="0" stroke="#000000" stroke-width="1" stroke-opacity="0"></use></g></g><g><use xlink:href="#c8M38XxCB" opacity="1" fill="#dde3e9" fill-opacity="1"></use><g><use xlink:href="#c8M38XxCB" opacity="1" fill-opacity="0" stroke="#000000" stroke-width="1" stroke-opacity="0"></use></g></g><g><use xlink:href="#adYObu4K4" opacity="1" fill="#dde3e9" fill-opacity="1"></use><g><use xlink:href="#adYObu4K4" opacity="1" fill-opacity="0" stroke="#000000" stroke-width="1" stroke-opacity="0"></use></g></g><g><use xlink:href="#aOiVYOGZS" opacity="1" fill="#f2f2f2" fill-opacity="1"></use><g><use xlink:href="#aOiVYOGZS" opacity="1" fill-opacity="0" stroke="#000000" stroke-width="1" stroke-opacity="0"></use></g></g><g><use xlink:href="#b6A48oEvu" opacity="1" fill="#ffffff" fill-opacity="1"></use><g><use xlink:href="#b6A48oEvu" opacity="1" fill-opacity="0" stroke="#000000" stroke-width="1" stroke-opacity="0"></use></g></g><g><use xlink:href="#a4fwgvs1h" opacity="1" fill="#dde3e9" fill-opacity="1"></use><g><use xlink:href="#a4fwgvs1h" opacity="1" fill-opacity="0" stroke="#000000" stroke-width="1" stroke-opacity="0"></use></g></g><g><use xlink:href="#aeHjBz35d" opacity="1" fill="#dde3e9" fill-opacity="1"></use><g><use xlink:href="#aeHjBz35d" opacity="1" fill-opacity="0" stroke="#000000" stroke-width="1" stroke-opacity="0"></use></g></g><g><use xlink:href="#a1ANIgaxN" opacity="1" fill="#dde3e9" fill-opacity="1"></use><g><use xlink:href="#a1ANIgaxN" opacity="1" fill-opacity="0" stroke="#000000" stroke-width="1" stroke-opacity="0"></use></g></g><g><use xlink:href="#b4hZYfTK1B" opacity="1" fill="#f2f2f2" fill-opacity="1"></use><g><use xlink:href="#b4hZYfTK1B" opacity="1" fill-opacity="0" stroke="#000000" stroke-width="1" stroke-opacity="0"></use></g></g><g><use xlink:href="#c2usH8fs3f" opacity="1" fill="#ffffff" fill-opacity="1"></use><g><use xlink:href="#c2usH8fs3f" opacity="1" fill-opacity="0" stroke="#000000" stroke-width="1" stroke-opacity="0"></use></g></g><g><use xlink:href="#cS1SNdn1E" opacity="1" fill="#dde3e9" fill-opacity="1"></use><g><use xlink:href="#cS1SNdn1E" opacity="1" fill-opacity="0" stroke="#000000" stroke-width="1" stroke-opacity="0"></use></g></g><g><use xlink:href="#a4J2mcsqu" opacity="1" fill="#dde3e9" fill-opacity="1"></use><g><use xlink:href="#a4J2mcsqu" opacity="1" fill-opacity="0" stroke="#000000" stroke-width="1" stroke-opacity="0"></use></g></g><g><use xlink:href="#a1J4OyBqyt" opacity="1" fill="#dde3e9" fill-opacity="1"></use><g><use xlink:href="#a1J4OyBqyt" opacity="1" fill-opacity="0" stroke="#000000" stroke-width="1" stroke-opacity="0"></use></g></g><g><use xlink:href="#e2pJfpPuF9" opacity="1" fill="#afb9c5" fill-opacity="1"></use><g><use xlink:href="#e2pJfpPuF9" opacity="1" fill-opacity="0" stroke="#000000" stroke-width="1" stroke-opacity="0"></use></g></g><g><use xlink:href="#a1PytezN3J" opacity="1" fill="#ffffff" fill-opacity="1"></use><g><use xlink:href="#a1PytezN3J" opacity="1" fill-opacity="0" stroke="#000000" stroke-width="1" stroke-opacity="0"></use></g></g><g><use xlink:href="#eX2lBby3T" opacity="1" fill="#dde3e9" fill-opacity="1"></use><g><use xlink:href="#eX2lBby3T" opacity="1" fill-opacity="0" stroke="#000000" stroke-width="1" stroke-opacity="0"></use></g></g><g><use xlink:href="#a184HnBB9N" opacity="1" fill="#dde3e9" fill-opacity="1"></use><g><use xlink:href="#a184HnBB9N" opacity="1" fill-opacity="0" stroke="#000000" stroke-width="1" stroke-opacity="0"></use></g></g><g><use xlink:href="#c4vDJkJTm" opacity="1" fill="#dde3e9" fill-opacity="1"></use><g><use xlink:href="#c4vDJkJTm" opacity="1" fill-opacity="0" stroke="#000000" stroke-width="1" stroke-opacity="0"></use></g></g><g><use xlink:href="#aM5OFdVQ" opacity="1" fill="#f2f2f2" fill-opacity="1"></use><g><use xlink:href="#aM5OFdVQ" opacity="1" fill-opacity="0" stroke="#000000" stroke-width="1" stroke-opacity="0"></use></g></g><g><use xlink:href="#akoAPWLfI" opacity="1" fill="#ffffff" fill-opacity="1"></use><g><use xlink:href="#akoAPWLfI" opacity="1" fill-opacity="0" stroke="#000000" stroke-width="1" stroke-opacity="0"></use></g></g><g><use xlink:href="#h31oQhZyC" opacity="1" fill="#dde3e9" fill-opacity="1"></use><g><use xlink:href="#h31oQhZyC" opacity="1" fill-opacity="0" stroke="#000000" stroke-width="1" stroke-opacity="0"></use></g></g><g><use xlink:href="#bnmTLpRFc" opacity="1" fill="#dde3e9" fill-opacity="1"></use><g><use xlink:href="#bnmTLpRFc" opacity="1" fill-opacity="0" stroke="#000000" stroke-width="1" stroke-opacity="0"></use></g></g><g><use xlink:href="#g2qeBnJiLS" opacity="1" fill="#dde3e9" fill-opacity="1"></use><g><use xlink:href="#g2qeBnJiLS" opacity="1" fill-opacity="0" stroke="#000000" stroke-width="1" stroke-opacity="0"></use></g></g><g><use xlink:href="#b65c5eQ1z" opacity="1" fill="#f2f2f2" fill-opacity="1"></use><g><use xlink:href="#b65c5eQ1z" opacity="1" fill-opacity="0" stroke="#000000" stroke-width="1" stroke-opacity="0"></use></g></g><g><use xlink:href="#b1yDSWYOmf" opacity="1" fill="#ffffff" fill-opacity="1"></use><g><use xlink:href="#b1yDSWYOmf" opacity="1" fill-opacity="0" stroke="#000000" stroke-width="1" stroke-opacity="0"></use></g></g><g><use xlink:href="#am0SFvG52" opacity="1" fill="#dde3e9" fill-opacity="1"></use><g><use xlink:href="#am0SFvG52" opacity="1" fill-opacity="0" stroke="#000000" stroke-width="1" stroke-opacity="0"></use></g></g><g><use xlink:href="#a1g8ybMSfj" opacity="1" fill="#dde3e9" fill-opacity="1"></use><g><use xlink:href="#a1g8ybMSfj" opacity="1" fill-opacity="0" stroke="#000000" stroke-width="1" stroke-opacity="0"></use></g></g><g><use xlink:href="#a32HyCjgp" opacity="1" fill="#dde3e9" fill-opacity="1"></use><g><use xlink:href="#a32HyCjgp" opacity="1" fill-opacity="0" stroke="#000000" stroke-width="1" stroke-opacity="0"></use></g></g><g><use xlink:href="#a3wLgTwRl" opacity="1" fill="#f2f2f2" fill-opacity="1"></use><g><use xlink:href="#a3wLgTwRl" opacity="1" fill-opacity="0" stroke="#000000" stroke-width="1" stroke-opacity="0"></use></g></g><g><use xlink:href="#b12qrulV7X" opacity="1" fill="#dce4ea" fill-opacity="0.84"></use><g><use xlink:href="#b12qrulV7X" opacity="1" fill-opacity="0" stroke="#000000" stroke-width="0.97" stroke-opacity="0"></use></g></g><g><use xlink:href="#a1qYMptE5" opacity="1" fill="#c5cfd6" fill-opacity="1"></use><g><use xlink:href="#a1qYMptE5" opacity="1" fill-opacity="0" stroke="#000000" stroke-width="1" stroke-opacity="0"></use></g></g><g><use xlink:href="#a5V0x4T9m" opacity="1" fill="#c5cfd6" fill-opacity="1"></use><g><use xlink:href="#a5V0x4T9m" opacity="1" fill-opacity="0" stroke="#000000" stroke-width="1" stroke-opacity="0"></use></g></g><g><use xlink:href="#b1MNSlD6MR" opacity="1" fill="#dde3e9" fill-opacity="1"></use><g><use xlink:href="#b1MNSlD6MR" opacity="1" fill-opacity="0" stroke="#000000" stroke-width="0.83" stroke-opacity="0"></use></g></g></g></g></svg>